<?xml version="1.0" encoding="utf-8"?>
<!-- Generator: Adobe Illustrator 24.0.2, SVG Export Plug-In . SVG Version: 6.00 Build 0)  -->
<svg version="1.1" baseProfile="basic" id="Layer_1"
	 xmlns="http://www.w3.org/2000/svg" xmlns:xlink="http://www.w3.org/1999/xlink" x="0px" y="0px" viewBox="0 0 121.36 140.39"
	 xml:space="preserve">
<style type="text/css">
	.st0{fill:#678CA8;}
</style>
<g>
	<path class="st0" d="M82.22,42.03c0.03-2.99-4.62-3.02-4.58,0c0.06,4.11,1.62,17.72-5.31,17.64c-6.2-0.06-4.59-13.12-4.6-17.49
		c0-3.06-4.64-3.06-4.57,0c0.01,0.23,0.01,0.48,0.01,0.73c-0.01,0.68-0.04,1.74-0.03,3.05c-0.17,5.78-0.95,13.68-3.12,13.67
		c-3.2,0-2.9-10.73-2.95-14.13c-0.01-0.54-0.17-0.99-0.42-1.33c0.29-0.92,0.09-2-0.94-2.66c-12.78-6.89-23.85,12.5-15.11,20.27
		c2.65,2.35,6.95,2.61,10.26,0.21c0.94-0.69,1.78-1.69,2.51-2.9c0.93,2.85,2.83,4.47,6.76,4.51c3.03,0.04,4.79-1.6,5.82-3.99
		c1.46,2.37,3.65,4.01,6.95,4.01c3.23-0.01,5.16-1.8,6.37-4.38c0.86,2.03,2.47,3.92,5.42,3.99c3.51,0.09,5.28-2.34,6.01-4.68
		c0.15,0.14,0.29,0.29,0.44,0.44c2.58,2.5,5.62,4.66,9.17,5.41c6.28,1.32,11.4-0.29,15.57-5c1.96-2.22-0.08-3.7-2.05-1.47
		c-4.53,5.13-12.37,3.54-17.81-0.75c-0.64-0.51-1.4-1.2-2.21-1.96c0.78-0.02,1.6-0.1,2.52-0.26c2.8-0.48,4.64-1.02,8.41-2.98
		c4.54-2.36,9.48-6.21,9.51-12.73c0.03-5.97-7.42-11.71-13.55-10c-0.23,0.07-0.46,0.14-0.69,0.23c0.74-2.53,1.4-5.04,1.95-7.38
		c0.96-4.08,1.82-10.72-1.16-14.29c-2.92-3.49-8.17-3.22-10.96,0.99c-3.5,5.31-4.66,13.28-4.86,19.27
		c-0.22,6.62,0.78,14.58,1.83,21.34c-0.22-0.07-0.43-0.1-0.59-0.07c-2.24,0.55-2.12,3.79-0.05,4.44c0.02,0.02,0.03,0.03,0.05,0.05
		c0.1,0.09,0.19,0.19,0.28,0.29c0.09,2.47,0.34,5.94-2.27,5.28C80.99,58.64,82.16,46.84,82.22,42.03z M45.51,59.49
		c-4.73-0.03-5.28-8.59-2.51-12.13c2.84-3.63,6.28-4.08,9.56-2.34c-0.03,0.16-0.06,0.32-0.06,0.49
		C52.37,49.62,52.67,59.54,45.51,59.49z M98.2,37.72c1.29-2.03,3.12-3.7,5.81-3.7c3,0,6.03,3.57,5.83,6.74
		c-0.26,4.17-4.06,6.47-7.05,7.91c-1.75,0.84-4.04,2.22-7.69,2.44c-1.22,0.08-2.29-0.08-3.32-0.34c0.11-0.28,0.23-0.57,0.38-0.86
		c1.13-2.27,2.14-4.6,3.14-6.93c0.04-0.1,0.08-0.21,0.13-0.31C96.29,40.97,97.19,39.32,98.2,37.72z M91.08,19.09
		c0.96-4.03,3.96-11.36,6.49-7.86c2.14,2.97,0.24,8.77-0.64,12.09c-1.61,6.13-3.83,13.1-6.49,19.36
		C89.5,34.79,89.23,26.85,91.08,19.09z"/>
	<path class="st0" d="M113.55,99.86c-3.64,2.09-8.07-3.61-11.95-8.81c-4.99-6.68-11.66-4.23-13.27-2.32
		c-1.26,1.49-1.42-0.57-1.97-1.76c-1.49-3.24-4.47-1.11-4.63,1.61c-0.15,2.51-1.3,5.44-2.98,8.52c-0.45-0.69-0.88-1.36-1.29-2.02
		c-1.55-2.5-2.78-4.61-3.78-6.43c0.09-0.15,0.17-0.29,0.24-0.42c6.07-8.13,10.45-17.04,1.44-20.1c-5.99-2.04-11.96,2.09-11.88,8.58
		c0.06,4.4,3.22,8.92,6.48,13.72c-0.01,0.02-0.02,0.03-0.04,0.05c-1.52,1.84-3.43,4.15-5.28,6.44c-3.09-5.5-6.13-10.07-7.04-12.06
		c-0.38-0.84-4.33-1.18-4.34,0.1c-0.06,7.53,0.84,22.27-4.36,22.28c-4.01,0.01-6.85-7.41-7.05-13.34c6.06-1.46,9.59-3.58,9.56-5.57
		c-0.09-5.64-10.59-5.56-12.68-0.42c-0.75,1.83-0.65,3.78-0.42,5.36c-0.63,0.14-1.29,0.29-1.98,0.45
		c-0.73-7.71-2.03-18.19-2.48-22.42c-0.18-1.64-2.98-1.62-3-0.02c-0.05,5.17,0.17,16.04,0.27,23.7c-5.57,1.4-11.13,3-12.76,4.02
		c-3.78,2.37-1.29,9.88,11.89,10.01c7.3,0.07,6.34-1.39,6.59-7.75c0-1.32-0.14-3.41-0.36-5.9c0.73-0.21,1.44-0.41,2.1-0.6
		c1.27,6.09,5.71,14.25,10.06,14.25c7.52,0,6.82-17.76,7.37-19.8c1.35,1.91,4.83,7.18,6.73,10.09c-2.71,3.43-4.89,6.4-4.88,7.02
		c0.06,3.39,13.1,3.86,11.3-0.37c-1.05-2.47-2.28-4.91-3.53-7.23c1.91-2.46,3.9-4.91,5.38-6.71c0.7,1.04,1.38,2.1,2.03,3.17
		c1.19,1.97,2.3,3.94,3.35,5.88c-6.04,9.39-15.04,19.27-15.15,23.23c-0.48,17.69,46.98,11.57,34.25-4.63
		c-3.24-4.12-6.53-8.34-9.57-12.4c0.94-2.66,1.49-8.29,3.32-10.9c2.93-4.19,6.36-3.57,9.42-0.28c5.86,6.27,10.63,9.33,16.75,5.72
		C117.43,100.58,116.7,98.04,113.55,99.86z M31.19,101.21c-0.13,3.96-7.97,3.55-7.94,0.05c0.01-1.17,3.71-2.79,7.92-4.24
		C31.18,98.69,31.19,100.13,31.19,101.21z M46.32,86.76c1.39,0.32,2.83,4.27-4.3,5.7c-0.05,0.01-0.11,0.02-0.16,0.03
		C42.02,88.8,43.36,86.05,46.32,86.76z M69.59,78.37c-0.35-3.4,4.07-5.04,6.1-2.3c1.35,2.15-0.5,6.3-3.12,10.48
		C70.29,82.11,69.74,79.86,69.59,78.37z M64.05,101.28c4.05,7.88-4.88,6.64-2.68,3.25c0.69-1.05,1.56-2.26,2.51-3.52
		C63.99,101.17,64.05,101.27,64.05,101.28z M66.43,123.52c-0.01-4.11,6.02-13.48,10.88-20.78c3.66,6.94,6.45,13.36,8.49,17.61
		C89.96,129.01,66.46,134.99,66.43,123.52z M79.91,98.85c1.89-2.84,3.26-4.97,3.42-5.68c0,0.26-0.22,6.23,0.1,10.69
		C82.18,102.14,81,100.46,79.91,98.85z"/>
	<path class="st0" d="M30.43,36.36c-0.01,0.12-0.02,0.23-0.02,0.36c-0.01,5.44,0.03,9.01,0.46,25.89c0.04,1.65,3,1.69,3-0.12
		c0.38-6.4,0.62-10.89,0.77-14.3c0.24-5.46,0.25-8.15,0.22-11.47c0-0.29-0.02-0.55-0.05-0.81c15.22-1.44,30.49-2.32,45.75-2.46
		c2.89-0.02,2.89-3.11,0-3.09c-24.63,0.21-49.29,0.83-73.73,4.16c-2.79,0.38-2.93,4.9,0,4.62c0.54-0.05,1.08-0.1,1.61-0.15
		c0.21-0.02,0.41-0.07,0.59-0.14C16.15,37.93,23.29,37.09,30.43,36.36z"/>
</g>
</svg>
